<svg width="146" height="47" fill="none" xmlns="http://www.w3.org/2000/svg"><g clip-path="url(#a)"><path d="M31.315 9.95c-.024-.214-.214-.309-.357-.309s-3.263-.238-3.263-.238-2.167-2.164-2.429-2.378c-.238-.238-.69-.167-.88-.12-.025 0-.477.144-1.215.381-.739-2.116-2-4.043-4.263-4.043h-.214c-.62-.808-1.43-1.189-2.096-1.189-5.239 0-7.763 6.54-8.55 9.87-2.047.643-3.5 1.07-3.666 1.142-1.143.357-1.167.38-1.31 1.45-.12.81-3.096 23.809-3.096 23.809l23.17 4.328 12.575-2.711c.023-.048-4.382-29.778-4.406-29.992Zm-9.43-2.33c-.572.166-1.262.38-1.953.618V7.81c0-1.285-.167-2.331-.476-3.164 1.19.143 1.929 1.451 2.429 2.973Zm-3.882-2.712c.31.809.524 1.95.524 3.52v.238c-1.286.404-2.643.809-4.048 1.26.786-2.996 2.286-4.47 3.524-5.018ZM16.48 3.433c.238 0 .476.096.667.238-1.691.785-3.477 2.76-4.215 6.755-1.12.357-2.191.666-3.215.999.857-3.045 3-7.992 6.763-7.992Z" fill="#95BF47"/><path d="m18.908 16.538-1.524 4.59s-1.381-.737-3.024-.737c-2.453 0-2.572 1.546-2.572 1.927 0 2.093 5.477 2.901 5.477 7.825 0 3.877-2.453 6.374-5.763 6.374-4 0-6.001-2.474-6.001-2.474l1.072-3.52s2.095 1.808 3.857 1.808c1.167 0 1.644-.904 1.644-1.57 0-2.735-4.477-2.854-4.477-7.373 0-3.782 2.714-7.444 8.215-7.444 2.048-.024 3.096.594 3.096.594Z" fill="#fff"/><path d="M50.39 25.172c-1.262-.666-1.905-1.26-1.905-2.046 0-.998.905-1.64 2.31-1.64 1.643 0 3.096.665 3.096.665l1.142-3.496s-1.047-.809-4.143-.809c-4.31 0-7.31 2.474-7.31 5.946 0 1.974 1.404 3.473 3.262 4.543 1.524.832 2.048 1.45 2.048 2.355 0 .927-.762 1.688-2.168 1.688-2.071 0-4.048-1.07-4.048-1.07l-1.214 3.496s1.81 1.213 4.858 1.213c4.43 0 7.644-2.188 7.644-6.112-.048-2.14-1.643-3.615-3.572-4.733Zm17.67-7.373c-2.191 0-3.906 1.046-5.216 2.616l-.047-.024 1.905-9.894h-4.93l-4.81 25.211h4.93l1.643-8.61c.643-3.258 2.333-5.28 3.905-5.28 1.12 0 1.548.761 1.548 1.832 0 .666-.048 1.522-.214 2.188l-1.858 9.87h4.93l1.929-10.18c.214-1.07.357-2.354.357-3.234-.024-2.83-1.477-4.495-4.072-4.495Zm15.217 0c-5.954 0-9.883 5.351-9.883 11.321 0 3.805 2.357 6.897 6.787 6.897 5.834 0 9.764-5.208 9.764-11.32.023-3.545-2.025-6.898-6.668-6.898Zm-2.43 14.46c-1.69 0-2.38-1.427-2.38-3.234 0-2.83 1.452-7.42 4.143-7.42 1.738 0 2.334 1.521 2.334 2.972 0 3.02-1.5 7.683-4.096 7.683ZM102.59 17.8c-3.334 0-5.216 2.949-5.216 2.949h-.047l.285-2.64h-4.381c-.215 1.784-.62 4.519-1 6.54l-3.406 18.053h4.93l1.38-7.302h.12s1.024.642 2.881.642c5.811 0 9.597-5.946 9.597-11.94-.024-3.33-1.524-6.302-5.143-6.302Zm-4.716 14.508c-1.285 0-2.048-.737-2.048-.737l.81-4.59c.572-3.093 2.191-5.114 3.906-5.114 1.524 0 1.976 1.403 1.976 2.711.024 3.187-1.881 7.73-4.644 7.73Zm16.884-21.572a2.829 2.829 0 0 0-2.833 2.854c0 1.45.928 2.474 2.333 2.474h.048c1.548 0 2.858-1.047 2.881-2.854.024-1.451-.952-2.474-2.429-2.474Zm-6.906 24.95h4.93l3.334-17.506h-4.954l-3.31 17.505Zm20.837-17.53h-3.429l.167-.808c.286-1.689 1.286-3.163 2.953-3.163.881 0 1.572.261 1.572.261l.952-3.877s-.833-.428-2.691-.428c-1.738 0-3.501.5-4.834 1.641-1.691 1.428-2.477 3.497-2.858 5.59l-.143.808h-2.31l-.738 3.734h2.31l-2.619 13.795h4.929l2.62-13.795h3.405l.714-3.757Zm11.883.024s-3.095 7.778-4.453 12.035h-.047c-.096-1.38-1.215-12.035-1.215-12.035h-5.191l2.976 16.03c.048.357.024.572-.119.81-.571 1.117-1.547 2.188-2.691 2.972-.928.666-1.976 1.118-2.81 1.404l1.382 4.186c1-.214 3.095-1.047 4.834-2.688 2.238-2.093 4.334-5.351 6.477-9.775l6.025-12.962h-5.168v.023Z" fill="#000"/><path d="M30.958 9.593c-.143 0-3.263-.237-3.263-.237s-2.167-2.165-2.429-2.379a.461.461 0 0 0-.31-.143l-1.738 35.82 12.574-2.712s-4.406-29.778-4.43-29.992a.644.644 0 0 0-.404-.357Z" fill="#5E8E3E"/></g><defs><clipPath id="a"><path fill="#fff" transform="translate(0 .484)" d="M0 0h145.74v45.665H0z"/></clipPath></defs></svg>