<svg width="180" height="39" fill="none" xmlns="http://www.w3.org/2000/svg"><path fill-rule="evenodd" clip-rule="evenodd" d="M96.233 27.074c-1.957 1.958-4.297 2.942-7.009 2.942-2.193 0-4.057-.44-5.96-1.53v-4.49c1.531 1.024 3.454 1.999 5.35 1.999 3.956 0 6.31-2.686 6.31-6.492 0-3.81-2.435-6.575-6.393-6.575-1.767 0-3.2.627-4.32 1.883-1.199 1.362-1.82 3.307-1.82 5.88v17.725h-.297c-2.18 0-3.947-1.743-3.947-3.893V20.025c0-6.152 3.812-11.119 10.365-11.119 3.236 0 5.863 1.091 7.856 3.284 1.873 2.049 2.802 4.644 2.802 7.768 0 2.78-.98 5.157-2.937 7.116Zm45.963-.15c-1.949 2.063-4.456 3.093-7.496 3.093-3.209 0-5.824-1.092-7.815-3.284-1.872-2.075-2.801-4.672-2.801-7.768 0-5.48 4.287-10.059 9.929-10.059 2.177 0 4.066.453 5.975 1.486v4.535c-1.53-1.024-3.452-1.999-5.348-1.999-3.956 0-6.312 2.685-6.312 6.493 0 3.756 2.493 6.574 6.393 6.574 1.766 0 3.22-.653 4.384-1.968 1.156-1.307 1.757-3.227 1.757-5.807V4.111c0-2.15 1.767-3.893 3.947-3.893h.298v18.664c0 3.287-.964 5.978-2.911 8.042Zm11.988-20.01c-.446.492-1.084.718-1.863.718-1.458 0-2.5-1.06-2.5-2.486 0-1.46 1.023-2.446 2.5-2.446 1.421 0 2.5 1.04 2.5 2.446 0 .695-.207 1.292-.637 1.768Zm21.57 11.306c0-1.65-.633-2.957-1.905-3.948-1.146-.89-2.577-1.344-4.319-1.344-3.842 0-6.309 2.963-6.309 6.616 0 3.517 2.615 6.45 6.269 6.45 2.542 0 3.901-1.463 5.35-3.288v5.26c-.738.546-1.588 1.141-2.455 1.49-.915.377-2.007.56-3.269.56-6.111 0-10.14-4.992-10.14-10.76 0-2.963.933-5.413 2.811-7.322 1.992-2.024 4.606-3.028 7.806-3.028 6.067 0 10.407 3.436 10.407 9.645v11.052h-.297c-2.182 0-3.949-1.743-3.949-3.894V18.22Zm-58.113-1.186c-.537-1.637-1.209-2.442-2.756-3.294-3.679-2.027-7.3-.301-8.984 3.278l11.74.016Zm-3.24 12.92c-2.711.57-5.372.131-7.968-1.3-2.532-1.395-4.228-3.47-5.078-6.21-1.718-5.545 1.802-11.723 7.464-13.219 2.807-.741 5.497-.405 8.054 1.004 4.246 2.341 5.794 5.963 5.524 10.63l-17.104-.034c.253 1.903 1.449 3.393 3.13 4.319 1.705.94 3.272 1.164 4.726.72 1.615-.5 2.924-1.8 3.99-3.01l3.485 2.504c-1.421 2.51-3.357 3.995-6.223 4.597ZM150.198 9.32h4.245v20.283h-.299c-2.178 0-3.946-1.743-3.946-3.894V9.32ZM6.213 29.603C2.06 29.603 0 26.817 0 22.926V8.166c0-2.15 1.768-3.894 3.948-3.894h.298V9.32h7.172v4.022H4.246v10.05c0 1.709.773 2.19 2.428 2.19h4.744v4.02H6.213Zm24.654-2.564c-2.097 1.984-4.618 2.977-7.547 2.977-2.9 0-5.407-.994-7.504-2.977-2.105-1.99-3.154-4.524-3.154-7.577 0-5.957 4.611-10.556 10.658-10.556 2.903 0 5.416 1.003 7.526 3 2.118 2.003 3.175 4.529 3.175 7.556 0 3.053-1.05 5.586-3.154 7.577Zm19.848-12.838c-.623 1.03-1.106 1.769-1.446 2.215-.374.485-.744.873-1.11 1.141 2.95.94 4.049 2.956 4.049 5.96v6.086h-.298c-2.18 0-3.948-1.743-3.948-3.894V23.93c0-1.945-.884-3.264-2.973-3.264h-3.856v8.937h-.298c-2.18 0-3.946-1.743-3.946-3.894V4.11c0-2.15 1.766-3.893 3.946-3.893h.298v16.384h1.255c1.379 0 2.285-.465 2.805-1.345l3.566-5.936 4.837-.005-2.881 4.885Zm21.913 12.838c-2.097 1.984-4.618 2.977-7.546 2.977-2.901 0-5.407-.994-7.505-2.977-2.104-1.99-3.154-4.524-3.154-7.577 0-5.957 4.611-10.556 10.659-10.556 2.902 0 5.415 1.003 7.526 3 2.117 2.003 3.174 4.529 3.174 7.556 0 3.053-1.05 5.586-3.153 7.577Zm-3.064-12.298c-1.17-1.207-2.655-1.813-4.482-1.813-3.907 0-6.246 2.81-6.246 6.534 0 3.672 2.395 6.533 6.246 6.533 3.852 0 6.245-2.861 6.245-6.533 0-1.95-.594-3.515-1.763-4.72Zm-41.761 0c-1.17-1.207-2.656-1.813-4.483-1.813-3.906 0-6.245 2.81-6.245 6.534 0 3.672 2.395 6.533 6.245 6.533 3.852 0 6.246-2.861 6.246-6.533 0-1.95-.594-3.515-1.763-4.72Z" fill="#42B549"/></svg>