<svg width="120" height="36" fill="none" xmlns="http://www.w3.org/2000/svg"><g clip-path="url(#a)"><path d="M32.344 8.86c-4.453 0-7.852 2.919-9.258 7.589-2.11-3.152-3.633-6.655-4.688-10.274h-4.804V18.55a4.443 4.443 0 0 1-4.453 4.436 4.443 4.443 0 0 1-4.454-4.436V6.292H0v12.375c0 5.02 4.102 9.223 9.258 9.223 5.156 0 9.258-4.086 9.258-9.223v-2.102c.937 1.985 2.109 3.853 3.398 5.604l-2.93 13.66h4.922l2.11-9.924a11.36 11.36 0 0 0 6.445 1.985c5.273 0 9.492-4.203 9.492-9.457-.117-5.253-4.336-9.573-9.61-9.573Zm0 14.243c-1.992-.117-3.867-.817-5.39-2.101l.35-1.868v-.117c.352-1.985 1.524-5.37 4.923-5.37 2.578-.117 4.687 1.985 4.804 4.553.117 2.568-1.992 4.67-4.57 4.787l-.117.116Z" fill="#6FDA44"/><path d="M76.64 8.86c-5.273 0-9.492 4.203-9.492 9.457 0 5.253 4.22 9.456 9.493 9.456 5.273 0 9.492-4.203 9.492-9.456 0-5.254-4.219-9.457-9.492-9.457Zm0 15.06c-3.046 0-5.624-2.451-5.624-5.603 0-3.152 2.46-5.604 5.625-5.604 3.046 0 5.625 2.452 5.625 5.487 0 3.152-2.461 5.72-5.625 5.72Zm21.094-10.507c-2.695 0-4.921 2.219-4.921 4.904v8.99H88.71V9.443h4.102v2.802a6.357 6.357 0 0 1 5.273-2.802h1.289v3.97h-1.64Zm-41.25-3.97 3.047 12.376L62.93 9.444h3.984l-5.156 17.862h-4.102l-3.164-12.492-3.164 12.492h-4.101L42.07 9.444h3.985l3.398 12.375 3.164-12.375h3.867Zm54.844 8.173c3.047-1.634 4.805-4.786 4.805-8.289h-3.985c0 3.036-2.46 5.37-5.39 5.37h-.586V.806h-4.102v26.501h4.102V18.9h.469c.468 0 .937.234 1.171.584l5.743 7.822h4.922l-7.149-9.69Z" fill="#000"/></g><defs><clipPath id="a"><path fill="#fff" transform="translate(0 .805)" d="M0 0h120v35.024H0z"/></clipPath></defs></svg>