<svg width="170" height="37" fill="none" xmlns="http://www.w3.org/2000/svg"><g clip-path="url(#a)"><path d="M19.055 19.216h17.253v17.23H19.055v-17.23Z" fill="#FFB900"/><path d="M0 19.216h17.253v17.23H0v-17.23Z" fill="#00A4EF"/><path d="m60.007 21.071-1.014 2.867h-.084a20.345 20.345 0 0 0-.985-2.81L52.492 7.494h-5.32v21.727h3.518V15.815c0-.843 0-1.799-.028-2.98-.028-.59-.084-1.04-.112-1.377h.084c.169.843.366 1.462.507 1.855l6.53 15.853h2.476l6.474-15.993c.14-.366.281-1.097.422-1.715h.084c-.084 1.602-.14 3.036-.168 3.907v13.773h3.743v-21.7h-5.123l-5.572 13.633Zm14.241-7.505h3.66v15.572h-3.66V13.566Zm1.858-6.577c-.62 0-1.126.225-1.548.618-.422.394-.648.9-.648 1.518 0 .59.226 1.096.648 1.49.422.393.929.59 1.548.59.62 0 1.154-.225 1.548-.59.422-.394.647-.9.647-1.49s-.225-1.096-.647-1.518c-.366-.393-.9-.618-1.548-.618Zm14.776 6.437a10.252 10.252 0 0 0-2.054-.225c-1.66 0-3.18.365-4.447 1.096-1.267.73-2.28 1.743-2.927 3.008-.676 1.293-1.014 2.782-1.014 4.497 0 1.49.338 2.81.985 4.02.648 1.18 1.548 2.135 2.759 2.782 1.154.646 2.505.984 4.025.984 1.745 0 3.236-.366 4.418-1.04l.029-.028v-3.373l-.141.112a6.29 6.29 0 0 1-1.773.927c-.648.225-1.239.338-1.745.338-1.464 0-2.618-.422-3.434-1.35-.844-.899-1.267-2.136-1.267-3.681 0-1.602.422-2.867 1.295-3.795.873-.928 2.027-1.405 3.434-1.405 1.182 0 2.392.393 3.49 1.18l.14.113v-3.57l-.028-.028c-.478-.197-1.013-.422-1.745-.562Zm12.075-.113a3.86 3.86 0 0 0-2.477.872c-.62.506-1.041 1.236-1.407 2.108h-.028v-2.727h-3.66v15.572h3.66v-7.955c0-1.349.281-2.473.9-3.288.619-.843 1.408-1.265 2.365-1.265.337 0 .675.084 1.097.14.394.113.676.225.873.366l.14.112v-3.654l-.084-.028c-.253-.168-.76-.253-1.379-.253Zm9.963-.084c-2.561 0-4.615.759-6.051 2.249-1.463 1.49-2.167 3.541-2.167 6.127 0 2.417.732 4.385 2.139 5.818 1.407 1.406 3.321 2.137 5.714 2.137 2.505 0 4.503-.76 5.938-2.277 1.464-1.518 2.168-3.542 2.168-6.043 0-2.474-.676-4.441-2.055-5.875-1.323-1.433-3.265-2.136-5.686-2.136Zm2.928 11.974c-.676.871-1.745 1.293-3.068 1.293s-2.393-.422-3.153-1.35c-.76-.87-1.125-2.136-1.125-3.738 0-1.658.394-2.923 1.125-3.822.76-.9 1.802-1.35 3.125-1.35 1.294 0 2.308.422 3.039 1.293.732.872 1.126 2.137 1.126 3.795-.056 1.686-.366 3.007-1.069 3.879Zm12.975-5.172c-1.154-.478-1.886-.843-2.224-1.152-.281-.282-.422-.675-.422-1.18 0-.423.169-.844.591-1.125.422-.281.901-.422 1.604-.422.62 0 1.267.113 1.886.281.619.169 1.182.422 1.633.76l.14.112v-3.43l-.084-.028a10.153 10.153 0 0 0-1.661-.477 11.288 11.288 0 0 0-1.801-.17c-1.745 0-3.18.423-4.306 1.35-1.126.871-1.661 2.052-1.661 3.43 0 .73.113 1.376.366 1.91s.619 1.04 1.126 1.462c.506.394 1.238.843 2.252 1.265.844.365 1.491.646 1.885.871.394.225.648.478.845.675.14.225.225.506.225.871 0 1.04-.788 1.546-2.393 1.546-.619 0-1.266-.112-2.026-.365a7.836 7.836 0 0 1-2.055-1.04l-.14-.113v3.57l.084.028c.535.253 1.182.422 1.97.618.788.14 1.492.253 2.111.253 1.886 0 3.434-.421 4.532-1.349 1.125-.9 1.716-2.052 1.716-3.541 0-1.04-.281-1.968-.9-2.67a11.418 11.418 0 0 0-3.293-1.94Zm13.847-6.802c-2.561 0-4.615.759-6.051 2.249-1.435 1.49-2.167 3.541-2.167 6.127 0 2.417.732 4.385 2.139 5.818 1.407 1.406 3.321 2.137 5.714 2.137 2.505 0 4.503-.76 5.938-2.277 1.464-1.518 2.168-3.542 2.168-6.043 0-2.474-.676-4.441-2.055-5.875-1.323-1.433-3.265-2.136-5.686-2.136Zm2.899 11.974c-.675.871-1.745 1.293-3.067 1.293-1.351 0-2.393-.422-3.153-1.35-.76-.87-1.126-2.136-1.126-3.738 0-1.658.394-2.923 1.126-3.822.76-.9 1.802-1.35 3.124-1.35 1.267 0 2.308.422 3.04 1.293.732.872 1.126 2.137 1.126 3.795 0 1.686-.366 3.007-1.07 3.879Zm24.403-8.63v-3.007h-3.687v-4.61l-.113.029-3.49 1.04-.084.028v3.513h-5.517V11.6c0-.9.225-1.602.619-2.052.394-.45.985-.675 1.717-.675.507 0 1.042.113 1.633.366l.14.084V6.146l-.084-.028c-.507-.169-1.182-.281-2.055-.281a6.602 6.602 0 0 0-2.927.674 4.878 4.878 0 0 0-1.998 1.996c-.479.843-.732 1.799-.732 2.895v2.164h-2.561v2.98h2.561v12.592h3.687V16.574h5.517v8.01c0 3.289 1.548 4.947 4.644 4.947.506 0 1.041-.084 1.548-.168.534-.113.928-.253 1.154-.366l.028-.028v-3.007l-.141.112c-.225.14-.422.253-.76.337a2.58 2.58 0 0 1-.732.113c-.731 0-1.238-.169-1.604-.59-.338-.394-.507-1.04-.507-1.996v-7.364h3.744Z" fill="#737373"/><path d="M19.055.187h17.253v17.23H19.055V.187Z" fill="#7FBA00"/><path d="M0 .187h17.253v17.23H0V.187Z" fill="#F25022"/></g><defs><clipPath id="a"><path fill="#fff" transform="translate(0 .187)" d="M0 0h170v36.259H0z"/></clipPath></defs></svg>