<svg width="120" height="41" fill="none" xmlns="http://www.w3.org/2000/svg"><g clip-path="url(#a)"><path d="m116.262 24.726 3.329 2.236c-1.08 1.603-3.664 4.354-8.132 4.354-5.548 0-9.68-4.325-9.68-9.826 0-5.855 4.175-9.826 9.213-9.826 5.066 0 7.548 4.06 8.351 6.251l.438 1.118-13.053 5.443c.993 1.971 2.541 2.971 4.731 2.971s3.708-1.088 4.803-2.721Zm-10.235-3.545 8.717-3.648c-.482-1.221-1.913-2.089-3.621-2.089-2.175 0-5.198 1.942-5.096 5.737Z" fill="#FF302F"/><path d="M72.447 21.49c0 5.663-4.38 9.826-9.754 9.826-5.373 0-9.753-4.163-9.753-9.826 0-5.693 4.38-9.826 9.753-9.826s9.754 4.119 9.754 9.826Zm-4.279 0c0-3.53-2.54-5.958-5.49-5.958-2.948 0-5.489 2.427-5.489 5.958 0 3.5 2.54 5.957 5.49 5.957 2.964 0 5.49-2.471 5.49-5.957Z" fill="#FFBA40"/><path d="M88.857 12.428h4.06v17.476c0 7.251-4.25 10.237-9.272 10.237-4.73 0-7.578-3.206-8.643-5.81l3.723-1.56c.671 1.604 2.292 3.502 4.92 3.502 3.227 0 5.212-2.015 5.212-5.781V29.08h-.146c-.963 1.177-2.803 2.236-5.139 2.236-4.877 0-9.344-4.28-9.344-9.797 0-5.545 4.468-9.87 9.344-9.87 2.322 0 4.176 1.044 5.14 2.192h.145v-1.412Zm.292 9.091c0-3.471-2.292-6.001-5.212-6.001-2.95 0-5.431 2.53-5.431 6.001 0 3.427 2.482 5.913 5.431 5.913 2.92.015 5.212-2.486 5.212-5.913Z" fill="#3686F7"/><path d="M51.145 21.445c0 5.664-4.38 9.826-9.754 9.826-5.373 0-9.753-4.177-9.753-9.826 0-5.692 4.38-9.84 9.753-9.84s9.754 4.148 9.754 9.84Zm-4.264 0c0-3.53-2.54-5.957-5.49-5.957-2.949 0-5.49 2.427-5.49 5.957 0 3.501 2.541 5.958 5.49 5.958 2.95 0 5.49-2.457 5.49-5.957Z" fill="#FF302F"/><path d="M95.486 1.646h4.205v28.772h-4.205V1.646Z" fill="#20B15A"/><path d="M15.607 27.006c-6.117 0-10.906-4.972-10.906-11.135 0-6.164 4.788-11.136 10.906-11.136 3.3 0 5.709 1.31 7.49 2.986l2.935-2.956C23.55 2.367 20.235.543 15.607.543 7.227.543.174 7.427.174 15.871c0 8.443 7.052 15.327 15.433 15.327 4.526 0 7.943-1.5 10.615-4.295 2.744-2.766 3.591-6.649 3.591-9.797 0-.985-.116-2-.248-2.75H15.607v4.089h9.943c-.292 2.56-1.095 4.31-2.278 5.501-1.43 1.456-3.694 3.06-7.665 3.06Z" fill="#3686F7"/></g><defs><clipPath id="a"><path fill="#fff" transform="translate(0 .482)" d="M0 0h120v39.669H0z"/></clipPath></defs></svg>